<mxfile host="65bd71144e" pages="3">
    <diagram id="rFE8vZMOYVn4h3HElNzp" name="Personaggio">
        <mxGraphModel dx="695" dy="790" grid="1" gridSize="10" guides="1" tooltips="1" connect="1" arrows="1" fold="1" page="1" pageScale="1" pageWidth="827" pageHeight="1169" math="0" shadow="0">
            <root>
                <mxCell id="0"/>
                <mxCell id="1" parent="0"/>
                <mxCell id="DwexcD54_K2qV1zHNieI-9" value="Personaggio: struct" style="rounded=0;whiteSpace=wrap;html=1;" parent="1" vertex="1">
                    <mxGeometry x="274" y="190" width="240" height="80" as="geometry"/>
                </mxCell>
                <mxCell id="DwexcD54_K2qV1zHNieI-29" style="edgeStyle=orthogonalEdgeStyle;rounded=0;orthogonalLoop=1;jettySize=auto;html=1;entryX=0;entryY=0.5;entryDx=0;entryDy=0;" parent="1" source="DwexcD54_K2qV1zHNieI-11" target="DwexcD54_K2qV1zHNieI-9" edge="1">
                    <mxGeometry relative="1" as="geometry"/>
                </mxCell>
                <mxCell id="DwexcD54_K2qV1zHNieI-11" value="Nome: char*" style="rounded=1;whiteSpace=wrap;html=1;" parent="1" vertex="1">
                    <mxGeometry x="34" y="200" width="120" height="60" as="geometry"/>
                </mxCell>
                <mxCell id="DwexcD54_K2qV1zHNieI-31" style="edgeStyle=orthogonalEdgeStyle;rounded=0;orthogonalLoop=1;jettySize=auto;html=1;entryX=0;entryY=0.5;entryDx=0;entryDy=0;" parent="1" source="DwexcD54_K2qV1zHNieI-12" target="DwexcD54_K2qV1zHNieI-9" edge="1">
                    <mxGeometry relative="1" as="geometry">
                        <Array as="points">
                            <mxPoint x="234" y="390"/>
                            <mxPoint x="234" y="230"/>
                        </Array>
                    </mxGeometry>
                </mxCell>
                <mxCell id="DwexcD54_K2qV1zHNieI-12" value="Salute: int" style="rounded=1;whiteSpace=wrap;html=1;" parent="1" vertex="1">
                    <mxGeometry x="34" y="360" width="120" height="60" as="geometry"/>
                </mxCell>
                <mxCell id="DwexcD54_K2qV1zHNieI-30" style="edgeStyle=orthogonalEdgeStyle;rounded=0;orthogonalLoop=1;jettySize=auto;html=1;entryX=0;entryY=0.5;entryDx=0;entryDy=0;" parent="1" source="DwexcD54_K2qV1zHNieI-13" target="DwexcD54_K2qV1zHNieI-9" edge="1">
                    <mxGeometry relative="1" as="geometry">
                        <mxPoint x="254" y="250" as="targetPoint"/>
                        <Array as="points">
                            <mxPoint x="94" y="270"/>
                            <mxPoint x="234" y="270"/>
                            <mxPoint x="234" y="230"/>
                        </Array>
                    </mxGeometry>
                </mxCell>
                <mxCell id="DwexcD54_K2qV1zHNieI-13" value="Mana: int" style="rounded=1;whiteSpace=wrap;html=1;" parent="1" vertex="1">
                    <mxGeometry x="34" y="280" width="120" height="60" as="geometry"/>
                </mxCell>
                <mxCell id="DwexcD54_K2qV1zHNieI-32" style="edgeStyle=orthogonalEdgeStyle;rounded=0;orthogonalLoop=1;jettySize=auto;html=1;entryX=1;entryY=0.5;entryDx=0;entryDy=0;" parent="1" source="DwexcD54_K2qV1zHNieI-14" target="DwexcD54_K2qV1zHNieI-9" edge="1">
                    <mxGeometry relative="1" as="geometry"/>
                </mxCell>
                <mxCell id="DwexcD54_K2qV1zHNieI-14" value="Inventario: Struct" style="rounded=1;whiteSpace=wrap;html=1;" parent="1" vertex="1">
                    <mxGeometry x="624" y="200" width="120" height="60" as="geometry"/>
                </mxCell>
                <mxCell id="DwexcD54_K2qV1zHNieI-33" style="edgeStyle=orthogonalEdgeStyle;rounded=0;orthogonalLoop=1;jettySize=auto;html=1;entryX=0.5;entryY=1;entryDx=0;entryDy=0;" parent="1" source="DwexcD54_K2qV1zHNieI-21" target="DwexcD54_K2qV1zHNieI-14" edge="1">
                    <mxGeometry relative="1" as="geometry"/>
                </mxCell>
                <mxCell id="DwexcD54_K2qV1zHNieI-21" value="Arma: struct" style="rounded=1;whiteSpace=wrap;html=1;" parent="1" vertex="1">
                    <mxGeometry x="534" y="300" width="100" height="50" as="geometry"/>
                </mxCell>
                <mxCell id="DwexcD54_K2qV1zHNieI-36" style="edgeStyle=orthogonalEdgeStyle;rounded=0;orthogonalLoop=1;jettySize=auto;html=1;" parent="1" source="DwexcD54_K2qV1zHNieI-22" edge="1">
                    <mxGeometry relative="1" as="geometry">
                        <mxPoint x="684" y="260" as="targetPoint"/>
                        <Array as="points">
                            <mxPoint x="684" y="325"/>
                        </Array>
                    </mxGeometry>
                </mxCell>
                <mxCell id="DwexcD54_K2qV1zHNieI-22" value="Incantesimo: struct" style="rounded=1;whiteSpace=wrap;html=1;" parent="1" vertex="1">
                    <mxGeometry x="694" y="300" width="100" height="50" as="geometry"/>
                </mxCell>
                <mxCell id="DwexcD54_K2qV1zHNieI-35" style="edgeStyle=orthogonalEdgeStyle;rounded=0;orthogonalLoop=1;jettySize=auto;html=1;" parent="1" source="DwexcD54_K2qV1zHNieI-23" edge="1">
                    <mxGeometry relative="1" as="geometry">
                        <mxPoint x="684" y="260" as="targetPoint"/>
                        <Array as="points">
                            <mxPoint x="684" y="435"/>
                        </Array>
                    </mxGeometry>
                </mxCell>
                <mxCell id="DwexcD54_K2qV1zHNieI-23" value="Armatura: int" style="rounded=1;whiteSpace=wrap;html=1;" parent="1" vertex="1">
                    <mxGeometry x="694" y="410" width="100" height="50" as="geometry"/>
                </mxCell>
                <mxCell id="DwexcD54_K2qV1zHNieI-34" style="edgeStyle=orthogonalEdgeStyle;rounded=0;orthogonalLoop=1;jettySize=auto;html=1;" parent="1" source="DwexcD54_K2qV1zHNieI-24" edge="1">
                    <mxGeometry relative="1" as="geometry">
                        <mxPoint x="684" y="260" as="targetPoint"/>
                    </mxGeometry>
                </mxCell>
                <mxCell id="DwexcD54_K2qV1zHNieI-24" value="Item: struct" style="rounded=1;whiteSpace=wrap;html=1;" parent="1" vertex="1">
                    <mxGeometry x="533" y="410" width="100" height="50" as="geometry"/>
                </mxCell>
            </root>
        </mxGraphModel>
    </diagram>
    <diagram id="YD7dXNGyFy9-mONwCfdr" name="Sistema Salute - Mana">
        &#xa;
        <mxGraphModel dx="1154" dy="790" grid="1" gridSize="10" guides="1" tooltips="1" connect="1" arrows="1" fold="1" page="1" pageScale="1" pageWidth="827" pageHeight="1169" math="0" shadow="0">
            &#xa;
            <root>
                &#xa;
                <mxCell id="dubFfcRXQEiKm9wECkvq-0"/>
                &#xa;
                <mxCell id="dubFfcRXQEiKm9wECkvq-1" parent="dubFfcRXQEiKm9wECkvq-0"/>
                &#xa;
                <mxCell id="Nk70jrtj5ExHIcntw_wj-3" style="edgeStyle=orthogonalEdgeStyle;rounded=0;orthogonalLoop=1;jettySize=auto;html=1;entryX=0.5;entryY=0;entryDx=0;entryDy=0;entryPerimeter=0;" parent="dubFfcRXQEiKm9wECkvq-1" source="Nk70jrtj5ExHIcntw_wj-1" target="Nk70jrtj5ExHIcntw_wj-2" edge="1">
                    &#xa;
                    <mxGeometry relative="1" as="geometry"/>
                    &#xa;
                </mxCell>
                &#xa;
                <mxCell id="Nk70jrtj5ExHIcntw_wj-1" value="Salute: X" style="ellipse;whiteSpace=wrap;html=1;" parent="dubFfcRXQEiKm9wECkvq-1" vertex="1">
                    &#xa;
                    <mxGeometry x="344" y="40" width="120" height="80" as="geometry"/>
                    &#xa;
                </mxCell>
                &#xa;
                <mxCell id="SWrQ9xAU-LF5RAsUjD06-0" style="edgeStyle=orthogonalEdgeStyle;rounded=0;orthogonalLoop=1;jettySize=auto;html=1;entryX=0.5;entryY=0;entryDx=0;entryDy=0;" parent="dubFfcRXQEiKm9wECkvq-1" source="Nk70jrtj5ExHIcntw_wj-2" target="Nk70jrtj5ExHIcntw_wj-4" edge="1">
                    &#xa;
                    <mxGeometry relative="1" as="geometry"/>
                    &#xa;
                </mxCell>
                &#xa;
                <mxCell id="SWrQ9xAU-LF5RAsUjD06-2" value="V" style="edgeLabel;html=1;align=center;verticalAlign=middle;resizable=0;points=[];" parent="SWrQ9xAU-LF5RAsUjD06-0" vertex="1" connectable="0">
                    &#xa;
                    <mxGeometry x="0.0366" y="4" relative="1" as="geometry">
                        &#xa;
                        <mxPoint x="81" y="-14" as="offset"/>
                        &#xa;
                    </mxGeometry>
                    &#xa;
                </mxCell>
                &#xa;
                <mxCell id="SWrQ9xAU-LF5RAsUjD06-3" style="edgeStyle=orthogonalEdgeStyle;rounded=0;orthogonalLoop=1;jettySize=auto;html=1;exitX=1;exitY=0.5;exitDx=0;exitDy=0;exitPerimeter=0;" parent="dubFfcRXQEiKm9wECkvq-1" source="Nk70jrtj5ExHIcntw_wj-2" edge="1">
                    &#xa;
                    <mxGeometry relative="1" as="geometry">
                        &#xa;
                        <mxPoint x="590" y="300" as="targetPoint"/>
                        &#xa;
                    </mxGeometry>
                    &#xa;
                </mxCell>
                &#xa;
                <mxCell id="SWrQ9xAU-LF5RAsUjD06-5" value="F" style="edgeLabel;html=1;align=center;verticalAlign=middle;resizable=0;points=[];" parent="SWrQ9xAU-LF5RAsUjD06-3" vertex="1" connectable="0">
                    &#xa;
                    <mxGeometry x="0.6735" y="-2" relative="1" as="geometry">
                        &#xa;
                        <mxPoint x="-104" y="-68" as="offset"/>
                        &#xa;
                    </mxGeometry>
                    &#xa;
                </mxCell>
                &#xa;
                <mxCell id="Nk70jrtj5ExHIcntw_wj-2" value="Viene danneggiato?" style="strokeWidth=2;html=1;shape=mxgraph.flowchart.decision;whiteSpace=wrap;" parent="dubFfcRXQEiKm9wECkvq-1" vertex="1">
                    &#xa;
                    <mxGeometry x="324" y="160" width="160" height="100" as="geometry"/>
                    &#xa;
                </mxCell>
                &#xa;
                <mxCell id="SWrQ9xAU-LF5RAsUjD06-18" style="edgeStyle=orthogonalEdgeStyle;rounded=0;orthogonalLoop=1;jettySize=auto;html=1;entryX=0.5;entryY=0;entryDx=0;entryDy=0;" parent="dubFfcRXQEiKm9wECkvq-1" source="Nk70jrtj5ExHIcntw_wj-4" target="SWrQ9xAU-LF5RAsUjD06-17" edge="1">
                    &#xa;
                    <mxGeometry relative="1" as="geometry"/>
                    &#xa;
                </mxCell>
                &#xa;
                <mxCell id="Nk70jrtj5ExHIcntw_wj-4" value="Controlla il danno del nemico, il danno subito è la differenza tra l'armatura ed il danno originale" style="rounded=0;whiteSpace=wrap;html=1;" parent="dubFfcRXQEiKm9wECkvq-1" vertex="1">
                    &#xa;
                    <mxGeometry x="120" y="250" width="180" height="110" as="geometry"/>
                    &#xa;
                </mxCell>
                &#xa;
                <mxCell id="SWrQ9xAU-LF5RAsUjD06-6" value="Non fare nulla, va avanti." style="rounded=0;whiteSpace=wrap;html=1;" parent="dubFfcRXQEiKm9wECkvq-1" vertex="1">
                    &#xa;
                    <mxGeometry x="530" y="300" width="120" height="60" as="geometry"/>
                    &#xa;
                </mxCell>
                &#xa;
                <mxCell id="SWrQ9xAU-LF5RAsUjD06-7" style="edgeStyle=orthogonalEdgeStyle;rounded=0;orthogonalLoop=1;jettySize=auto;html=1;entryX=0.5;entryY=0;entryDx=0;entryDy=0;entryPerimeter=0;" parent="dubFfcRXQEiKm9wECkvq-1" source="SWrQ9xAU-LF5RAsUjD06-8" target="SWrQ9xAU-LF5RAsUjD06-13" edge="1">
                    &#xa;
                    <mxGeometry relative="1" as="geometry"/>
                    &#xa;
                </mxCell>
                &#xa;
                <mxCell id="SWrQ9xAU-LF5RAsUjD06-8" value="Mana: X" style="ellipse;whiteSpace=wrap;html=1;" parent="dubFfcRXQEiKm9wECkvq-1" vertex="1">
                    &#xa;
                    <mxGeometry x="364" y="620" width="120" height="80" as="geometry"/>
                    &#xa;
                </mxCell>
                &#xa;
                <mxCell id="SWrQ9xAU-LF5RAsUjD06-9" style="edgeStyle=orthogonalEdgeStyle;rounded=0;orthogonalLoop=1;jettySize=auto;html=1;entryX=0.5;entryY=0;entryDx=0;entryDy=0;" parent="dubFfcRXQEiKm9wECkvq-1" source="SWrQ9xAU-LF5RAsUjD06-13" target="SWrQ9xAU-LF5RAsUjD06-15" edge="1">
                    &#xa;
                    <mxGeometry relative="1" as="geometry"/>
                    &#xa;
                </mxCell>
                &#xa;
                <mxCell id="SWrQ9xAU-LF5RAsUjD06-10" value="V" style="edgeLabel;html=1;align=center;verticalAlign=middle;resizable=0;points=[];" parent="SWrQ9xAU-LF5RAsUjD06-9" vertex="1" connectable="0">
                    &#xa;
                    <mxGeometry x="0.0366" y="4" relative="1" as="geometry">
                        &#xa;
                        <mxPoint x="81" y="-14" as="offset"/>
                        &#xa;
                    </mxGeometry>
                    &#xa;
                </mxCell>
                &#xa;
                <mxCell id="SWrQ9xAU-LF5RAsUjD06-11" style="edgeStyle=orthogonalEdgeStyle;rounded=0;orthogonalLoop=1;jettySize=auto;html=1;exitX=1;exitY=0.5;exitDx=0;exitDy=0;exitPerimeter=0;" parent="dubFfcRXQEiKm9wECkvq-1" source="SWrQ9xAU-LF5RAsUjD06-13" edge="1">
                    &#xa;
                    <mxGeometry relative="1" as="geometry">
                        &#xa;
                        <mxPoint x="610" y="880" as="targetPoint"/>
                        &#xa;
                    </mxGeometry>
                    &#xa;
                </mxCell>
                &#xa;
                <mxCell id="SWrQ9xAU-LF5RAsUjD06-12" value="F" style="edgeLabel;html=1;align=center;verticalAlign=middle;resizable=0;points=[];" parent="SWrQ9xAU-LF5RAsUjD06-11" vertex="1" connectable="0">
                    &#xa;
                    <mxGeometry x="0.6735" y="-2" relative="1" as="geometry">
                        &#xa;
                        <mxPoint x="-104" y="-68" as="offset"/>
                        &#xa;
                    </mxGeometry>
                    &#xa;
                </mxCell>
                &#xa;
                <mxCell id="SWrQ9xAU-LF5RAsUjD06-13" value="Esegue l'incantesimo?" style="strokeWidth=2;html=1;shape=mxgraph.flowchart.decision;whiteSpace=wrap;" parent="dubFfcRXQEiKm9wECkvq-1" vertex="1">
                    &#xa;
                    <mxGeometry x="344" y="740" width="160" height="100" as="geometry"/>
                    &#xa;
                </mxCell>
                &#xa;
                <mxCell id="SWrQ9xAU-LF5RAsUjD06-27" style="edgeStyle=orthogonalEdgeStyle;rounded=0;orthogonalLoop=1;jettySize=auto;html=1;entryX=0.5;entryY=0;entryDx=0;entryDy=0;" parent="dubFfcRXQEiKm9wECkvq-1" source="SWrQ9xAU-LF5RAsUjD06-15" target="SWrQ9xAU-LF5RAsUjD06-26" edge="1">
                    &#xa;
                    <mxGeometry relative="1" as="geometry"/>
                    &#xa;
                </mxCell>
                &#xa;
                <mxCell id="SWrQ9xAU-LF5RAsUjD06-15" value="Sottrai il mana richiesto dall' incantesimo." style="rounded=0;whiteSpace=wrap;html=1;" parent="dubFfcRXQEiKm9wECkvq-1" vertex="1">
                    &#xa;
                    <mxGeometry x="160" y="860" width="180" height="110" as="geometry"/>
                    &#xa;
                </mxCell>
                &#xa;
                <mxCell id="SWrQ9xAU-LF5RAsUjD06-16" value="Non fare nulla, va avanti." style="rounded=0;whiteSpace=wrap;html=1;" parent="dubFfcRXQEiKm9wECkvq-1" vertex="1">
                    &#xa;
                    <mxGeometry x="550" y="880" width="120" height="60" as="geometry"/>
                    &#xa;
                </mxCell>
                &#xa;
                <mxCell id="SWrQ9xAU-LF5RAsUjD06-20" style="edgeStyle=orthogonalEdgeStyle;rounded=0;orthogonalLoop=1;jettySize=auto;html=1;entryX=0.5;entryY=0;entryDx=0;entryDy=0;" parent="dubFfcRXQEiKm9wECkvq-1" source="SWrQ9xAU-LF5RAsUjD06-17" target="Nk70jrtj5ExHIcntw_wj-1" edge="1">
                    &#xa;
                    <mxGeometry relative="1" as="geometry">
                        &#xa;
                        <Array as="points">
                            &#xa;
                            <mxPoint x="70" y="425"/>
                            &#xa;
                            <mxPoint x="70" y="20"/>
                            &#xa;
                            <mxPoint x="404" y="20"/>
                            &#xa;
                        </Array>
                        &#xa;
                    </mxGeometry>
                    &#xa;
                </mxCell>
                &#xa;
                <mxCell id="SWrQ9xAU-LF5RAsUjD06-21" value="V" style="edgeLabel;html=1;align=center;verticalAlign=middle;resizable=0;points=[];" parent="SWrQ9xAU-LF5RAsUjD06-20" vertex="1" connectable="0">
                    &#xa;
                    <mxGeometry x="-0.8769" y="3" relative="1" as="geometry">
                        &#xa;
                        <mxPoint x="43.5" y="-18" as="offset"/>
                        &#xa;
                    </mxGeometry>
                    &#xa;
                </mxCell>
                &#xa;
                <mxCell id="SWrQ9xAU-LF5RAsUjD06-25" style="edgeStyle=orthogonalEdgeStyle;rounded=0;orthogonalLoop=1;jettySize=auto;html=1;entryX=0.5;entryY=0;entryDx=0;entryDy=0;" parent="dubFfcRXQEiKm9wECkvq-1" source="SWrQ9xAU-LF5RAsUjD06-17" target="SWrQ9xAU-LF5RAsUjD06-22" edge="1">
                    &#xa;
                    <mxGeometry relative="1" as="geometry">
                        &#xa;
                        <Array as="points">
                            &#xa;
                            <mxPoint x="333" y="425"/>
                            &#xa;
                        </Array>
                        &#xa;
                    </mxGeometry>
                    &#xa;
                </mxCell>
                &#xa;
                <mxCell id="SWrQ9xAU-LF5RAsUjD06-32" value="F" style="edgeLabel;html=1;align=center;verticalAlign=middle;resizable=0;points=[];" parent="SWrQ9xAU-LF5RAsUjD06-25" vertex="1" connectable="0">
                    &#xa;
                    <mxGeometry x="-0.6316" relative="1" as="geometry">
                        &#xa;
                        <mxPoint x="-17" y="-15" as="offset"/>
                        &#xa;
                    </mxGeometry>
                    &#xa;
                </mxCell>
                &#xa;
                <mxCell id="SWrQ9xAU-LF5RAsUjD06-17" value="Gli hp sono &amp;gt;= 0?" style="rhombus;whiteSpace=wrap;html=1;" parent="dubFfcRXQEiKm9wECkvq-1" vertex="1">
                    &#xa;
                    <mxGeometry x="147.5" y="390" width="125" height="70" as="geometry"/>
                    &#xa;
                </mxCell>
                &#xa;
                <mxCell id="SWrQ9xAU-LF5RAsUjD06-22" value="GIOCO FINITO" style="rounded=0;whiteSpace=wrap;html=1;" parent="dubFfcRXQEiKm9wECkvq-1" vertex="1">
                    &#xa;
                    <mxGeometry x="272.5" y="460" width="120" height="60" as="geometry"/>
                    &#xa;
                </mxCell>
                &#xa;
                <mxCell id="SWrQ9xAU-LF5RAsUjD06-29" style="edgeStyle=orthogonalEdgeStyle;rounded=0;orthogonalLoop=1;jettySize=auto;html=1;entryX=0.5;entryY=0;entryDx=0;entryDy=0;" parent="dubFfcRXQEiKm9wECkvq-1" source="SWrQ9xAU-LF5RAsUjD06-26" target="SWrQ9xAU-LF5RAsUjD06-28" edge="1">
                    &#xa;
                    <mxGeometry relative="1" as="geometry">
                        &#xa;
                        <Array as="points">
                            &#xa;
                            <mxPoint x="126" y="1040"/>
                            &#xa;
                        </Array>
                        &#xa;
                    </mxGeometry>
                    &#xa;
                </mxCell>
                &#xa;
                <mxCell id="SWrQ9xAU-LF5RAsUjD06-31" value="V" style="edgeLabel;html=1;align=center;verticalAlign=middle;resizable=0;points=[];" parent="SWrQ9xAU-LF5RAsUjD06-29" vertex="1" connectable="0">
                    &#xa;
                    <mxGeometry x="0.182" y="2" relative="1" as="geometry">
                        &#xa;
                        <mxPoint x="40.75" y="-12" as="offset"/>
                        &#xa;
                    </mxGeometry>
                    &#xa;
                </mxCell>
                &#xa;
                <mxCell id="SXm9wCrs2QMt2cKml9g7-1" style="edgeStyle=orthogonalEdgeStyle;rounded=0;orthogonalLoop=1;jettySize=auto;html=1;" parent="dubFfcRXQEiKm9wECkvq-1" source="SWrQ9xAU-LF5RAsUjD06-26" target="SXm9wCrs2QMt2cKml9g7-0" edge="1">
                    &#xa;
                    <mxGeometry relative="1" as="geometry">
                        &#xa;
                        <Array as="points">
                            &#xa;
                            <mxPoint x="374" y="1040"/>
                            &#xa;
                        </Array>
                        &#xa;
                    </mxGeometry>
                    &#xa;
                </mxCell>
                &#xa;
                <mxCell id="SXm9wCrs2QMt2cKml9g7-2" value="F" style="edgeLabel;html=1;align=center;verticalAlign=middle;resizable=0;points=[];" parent="SXm9wCrs2QMt2cKml9g7-1" vertex="1" connectable="0">
                    &#xa;
                    <mxGeometry x="-0.595" y="3" relative="1" as="geometry">
                        &#xa;
                        <mxPoint x="-16" y="-7" as="offset"/>
                        &#xa;
                    </mxGeometry>
                    &#xa;
                </mxCell>
                &#xa;
                <mxCell id="SWrQ9xAU-LF5RAsUjD06-26" value="C'è abbastanza mana?" style="rhombus;whiteSpace=wrap;html=1;" parent="dubFfcRXQEiKm9wECkvq-1" vertex="1">
                    &#xa;
                    <mxGeometry x="186.25" y="1000" width="127.5" height="80" as="geometry"/>
                    &#xa;
                </mxCell>
                &#xa;
                <mxCell id="SWrQ9xAU-LF5RAsUjD06-30" style="edgeStyle=orthogonalEdgeStyle;rounded=0;orthogonalLoop=1;jettySize=auto;html=1;entryX=0.5;entryY=0;entryDx=0;entryDy=0;" parent="dubFfcRXQEiKm9wECkvq-1" source="SWrQ9xAU-LF5RAsUjD06-28" target="SWrQ9xAU-LF5RAsUjD06-8" edge="1">
                    &#xa;
                    <mxGeometry relative="1" as="geometry">
                        &#xa;
                        <Array as="points">
                            &#xa;
                            <mxPoint x="50" y="1090"/>
                            &#xa;
                            <mxPoint x="50" y="600"/>
                            &#xa;
                            <mxPoint x="424" y="600"/>
                            &#xa;
                        </Array>
                        &#xa;
                    </mxGeometry>
                    &#xa;
                </mxCell>
                &#xa;
                <mxCell id="SWrQ9xAU-LF5RAsUjD06-28" value="Lancia l'incantesimo" style="rounded=0;whiteSpace=wrap;html=1;" parent="dubFfcRXQEiKm9wECkvq-1" vertex="1">
                    &#xa;
                    <mxGeometry x="66.25" y="1060" width="120" height="60" as="geometry"/>
                    &#xa;
                </mxCell>
                &#xa;
                <mxCell id="SXm9wCrs2QMt2cKml9g7-0" value="L'incantesimo non viene lanciato" style="rounded=0;whiteSpace=wrap;html=1;" parent="dubFfcRXQEiKm9wECkvq-1" vertex="1">
                    &#xa;
                    <mxGeometry x="313.75" y="1060" width="120" height="60" as="geometry"/>
                    &#xa;
                </mxCell>
                &#xa;
            </root>
            &#xa;
        </mxGraphModel>
        &#xa;
    </diagram>
    <diagram id="TeCMl6bntRmcjQaNVBzv" name="Composizione items">
        <mxGraphModel dx="695" dy="790" grid="1" gridSize="10" guides="1" tooltips="1" connect="1" arrows="1" fold="1" page="1" pageScale="1" pageWidth="827" pageHeight="1169" math="0" shadow="0">
            <root>
                <mxCell id="6Ot_51RtZlPtFDJyK4sR-0"/>
                <mxCell id="6Ot_51RtZlPtFDJyK4sR-1" parent="6Ot_51RtZlPtFDJyK4sR-0"/>
                <mxCell id="6Ot_51RtZlPtFDJyK4sR-3" value="Arma" style="swimlane;fontStyle=0;childLayout=stackLayout;horizontal=1;startSize=26;fillColor=none;horizontalStack=0;resizeParent=1;resizeParentMax=0;resizeLast=0;collapsible=1;marginBottom=0;" parent="6Ot_51RtZlPtFDJyK4sR-1" vertex="1">
                    <mxGeometry x="180" y="40" width="140" height="80" as="geometry"/>
                </mxCell>
                <mxCell id="6Ot_51RtZlPtFDJyK4sR-4" value="Danno: int" style="text;strokeColor=none;fillColor=none;align=left;verticalAlign=top;spacingLeft=4;spacingRight=4;overflow=hidden;rotatable=0;points=[[0,0.5],[1,0.5]];portConstraint=eastwest;" parent="6Ot_51RtZlPtFDJyK4sR-3" vertex="1">
                    <mxGeometry y="26" width="140" height="26" as="geometry"/>
                </mxCell>
                <mxCell id="6Ot_51RtZlPtFDJyK4sR-5" value="Descrizione: char[100]" style="text;strokeColor=none;fillColor=none;align=left;verticalAlign=top;spacingLeft=4;spacingRight=4;overflow=hidden;rotatable=0;points=[[0,0.5],[1,0.5]];portConstraint=eastwest;" parent="6Ot_51RtZlPtFDJyK4sR-3" vertex="1">
                    <mxGeometry y="52" width="140" height="28" as="geometry"/>
                </mxCell>
                <mxCell id="6Ot_51RtZlPtFDJyK4sR-7" value="Incantesimo" style="swimlane;fontStyle=0;childLayout=stackLayout;horizontal=1;startSize=26;fillColor=none;horizontalStack=0;resizeParent=1;resizeParentMax=0;resizeLast=0;collapsible=1;marginBottom=0;" parent="6Ot_51RtZlPtFDJyK4sR-1" vertex="1">
                    <mxGeometry x="510" y="160" width="140" height="110" as="geometry"/>
                </mxCell>
                <mxCell id="6Ot_51RtZlPtFDJyK4sR-8" value="Danno: int" style="text;strokeColor=none;fillColor=none;align=left;verticalAlign=top;spacingLeft=4;spacingRight=4;overflow=hidden;rotatable=0;points=[[0,0.5],[1,0.5]];portConstraint=eastwest;" parent="6Ot_51RtZlPtFDJyK4sR-7" vertex="1">
                    <mxGeometry y="26" width="140" height="26" as="geometry"/>
                </mxCell>
                <mxCell id="6Ot_51RtZlPtFDJyK4sR-9" value="Descrizione: char[100]" style="text;strokeColor=none;fillColor=none;align=left;verticalAlign=top;spacingLeft=4;spacingRight=4;overflow=hidden;rotatable=0;points=[[0,0.5],[1,0.5]];portConstraint=eastwest;" parent="6Ot_51RtZlPtFDJyK4sR-7" vertex="1">
                    <mxGeometry y="52" width="140" height="26" as="geometry"/>
                </mxCell>
                <mxCell id="6Ot_51RtZlPtFDJyK4sR-10" value="Mana richiesto: int" style="text;strokeColor=none;fillColor=none;align=left;verticalAlign=top;spacingLeft=4;spacingRight=4;overflow=hidden;rotatable=0;points=[[0,0.5],[1,0.5]];portConstraint=eastwest;" parent="6Ot_51RtZlPtFDJyK4sR-7" vertex="1">
                    <mxGeometry y="78" width="140" height="32" as="geometry"/>
                </mxCell>
                <mxCell id="6Ot_51RtZlPtFDJyK4sR-11" value="Item" style="swimlane;fontStyle=0;childLayout=stackLayout;horizontal=1;startSize=26;fillColor=none;horizontalStack=0;resizeParent=1;resizeParentMax=0;resizeLast=0;collapsible=1;marginBottom=0;" parent="6Ot_51RtZlPtFDJyK4sR-1" vertex="1">
                    <mxGeometry x="510" y="40" width="140" height="110" as="geometry"/>
                </mxCell>
                <mxCell id="6Ot_51RtZlPtFDJyK4sR-12" value="Effetto: int" style="text;strokeColor=none;fillColor=none;align=left;verticalAlign=top;spacingLeft=4;spacingRight=4;overflow=hidden;rotatable=0;points=[[0,0.5],[1,0.5]];portConstraint=eastwest;" parent="6Ot_51RtZlPtFDJyK4sR-11" vertex="1">
                    <mxGeometry y="26" width="140" height="26" as="geometry"/>
                </mxCell>
                <mxCell id="6Ot_51RtZlPtFDJyK4sR-13" value="Descrizione: char[100]" style="text;strokeColor=none;fillColor=none;align=left;verticalAlign=top;spacingLeft=4;spacingRight=4;overflow=hidden;rotatable=0;points=[[0,0.5],[1,0.5]];portConstraint=eastwest;" parent="6Ot_51RtZlPtFDJyK4sR-11" vertex="1">
                    <mxGeometry y="52" width="140" height="26" as="geometry"/>
                </mxCell>
                <mxCell id="6Ot_51RtZlPtFDJyK4sR-14" value="Utilizzi: int" style="text;strokeColor=none;fillColor=none;align=left;verticalAlign=top;spacingLeft=4;spacingRight=4;overflow=hidden;rotatable=0;points=[[0,0.5],[1,0.5]];portConstraint=eastwest;" parent="6Ot_51RtZlPtFDJyK4sR-11" vertex="1">
                    <mxGeometry y="78" width="140" height="32" as="geometry"/>
                </mxCell>
                <mxCell id="yEmKDTUPGk8M3MizP4w3-0" value="Armatura" style="swimlane;fontStyle=0;childLayout=stackLayout;horizontal=1;startSize=26;fillColor=none;horizontalStack=0;resizeParent=1;resizeParentMax=0;resizeLast=0;collapsible=1;marginBottom=0;" parent="6Ot_51RtZlPtFDJyK4sR-1" vertex="1">
                    <mxGeometry x="180" y="160" width="140" height="78" as="geometry"/>
                </mxCell>
                <mxCell id="yEmKDTUPGk8M3MizP4w3-1" value="Resistenza: int" style="text;strokeColor=none;fillColor=none;align=left;verticalAlign=top;spacingLeft=4;spacingRight=4;overflow=hidden;rotatable=0;points=[[0,0.5],[1,0.5]];portConstraint=eastwest;" parent="yEmKDTUPGk8M3MizP4w3-0" vertex="1">
                    <mxGeometry y="26" width="140" height="26" as="geometry"/>
                </mxCell>
                <mxCell id="yEmKDTUPGk8M3MizP4w3-2" value="Descrizione: char[100]" style="text;strokeColor=none;fillColor=none;align=left;verticalAlign=top;spacingLeft=4;spacingRight=4;overflow=hidden;rotatable=0;points=[[0,0.5],[1,0.5]];portConstraint=eastwest;" parent="yEmKDTUPGk8M3MizP4w3-0" vertex="1">
                    <mxGeometry y="52" width="140" height="26" as="geometry"/>
                </mxCell>
            </root>
        </mxGraphModel>
    </diagram>
</mxfile>